<?xml version="1.0" encoding="utf-8"?>

<svg version="1.1" id="Layer_1" xmlns="http://www.w3.org/2000/svg" xmlns:xlink="http://www.w3.org/1999/xlink" 
	 viewBox="-30 1080 854 120" xml:space="preserve">
<style type="text/css">
.st0 {
         fill: #0c0811;
      }
      .st2 {
         fill: none;
         stroke: #FFFFFF;
         stroke-width: 8.4864;
         stroke-linecap: round;
         stroke-linejoin: round;
         stroke-miterlimit: 10;
      }
	.st4{fill:#FFFFFF;}
	.st5{fill:none;stroke:#FFFFFF;stroke-width:2.9063;stroke-linecap:round;stroke-miterlimit:10;}
</style>
<path id="background" class="st0" d="M-12.3,1193.4h818.6c9.8,0,17.7-7.9,17.7-17.7v-74.6c0-9.8-7.9-17.7-17.7-17.7H-12.3c-9.8,0-17.7,7.9-17.7,17.7
	v74.6C-30,1185.5-22.1,1193.4-12.3,1193.4z"/>


<path id="flutter" class="st4" d="M346.9,1108.3l-28.8,28.7l8.9,8.9l37.5-37.6L346.9,1108.3L346.9,1108.3z M346.9,1134.8l-15.5,15.5l15.5,15.5
	h17.7l-15.5-15.5l15.5-15.5L346.9,1134.8L346.9,1134.8z"/>
<g id="unreal_squircle">
	<g id="unreal" transform="translate(3.000000, 3.000000)">
		<path id="Shape" class="st4" d="M147.9,1118c-3.6,3-3.5,5.5-2.8,6.8c0.8,1.3,1.8,0.5,1.8,0.5v16.1c0.5,0.7,1.1,1.4,3.1,1.4
			c0.9,0,2.2-0.7,3.4-1.9c0-1.3,0-12.4,0-13.7c0-1.3-1.8-2.8-1.8-2.8s2.3,0,3.1,0.9c2.9-3.7,8.5-5.4,10-5.7
			c-0.6,0.3-4.6,6.1-4.6,6.1v15.3c1.5,2.5,4.5-1.1,7-2.6c-2.6,6.1-9.3,10.3-9.3,10.3l-3.7-3.1c0,0-2.2,2.4-3.9,4
			c-7.4-0.7-11.6-4.3-12.4-5.8c2.7,0.7,2.8-1,2.8-1v-12.6c-1.8-5.3-9.2,5.8-10.4,7.8c0-3,0.7-7.1,6.2-12.7
			C141.8,1119.6,147.9,1118,147.9,1118z M149.1,1109.2c-13.6,0-24.6,11-24.6,24.6s11.1,24.6,24.6,24.6c13.6,0,24.6-11.1,24.6-24.6
			S162.7,1109.2,149.1,1109.2z M149.1,1107.4c14.6,0,26.4,11.8,26.4,26.4s-11.8,26.4-26.4,26.4c-14.6,0-26.4-11.8-26.4-26.4
			S134.6,1107.4,149.1,1107.4z"/>
	</g>
</g>
<path id="unity-3d" class="st4" d="M263.5,1153.2l-9.8-16.4l9.8-16.4l4.8,16.4L263.5,1153.2z M241.8,1151.6l-12.3-12.1h19.6l9.8,16.4
	C258.9,1155.9,241.8,1151.6,241.8,1151.6z M241.8,1121.8l17.1-4.3l-9.8,16.4h-19.8C229.3,1134.1,241.8,1121.8,241.8,1121.8z
	 M266.9,1109.5l-22.3,5.7l-3.4,5.7h-6.6l-16.4,15.9l16.4,15.9h6.6l3.2,5.7l22.3,5.7l5.9-21.6l-3.2-5.7l3.4-5.7
	C272.8,1131.1,266.9,1109.5,266.9,1109.5z"/>

<path id="substance-painter" class="st4" d="M626.2,1151.8c0-4.5,0-8.9,0-13.4c3.9,1.2,7.8,2.4,11.8,3.6c0,1,0,1.8,0,2.8c4.5,2.6,9,5.2,13.5,7.8
	c3.3-1.9,6.6-3.8,10-5.8c-11.9-3.8-23.6-7.4-35.3-11.1c0-4.5,0-8.9,0-13.4c1.1-0.6,2.2-1.1,3.2-1.7c6.5-3.7,12.9-7.4,19.4-11.1
	c0.8-0.4,1.5-1,2.2-1.5c0.3,0,0.5,0,0.8,0c0.9,0.5,1.7,1.1,2.6,1.6c3.4,2,6.9,4,10.3,5.9c3.1,1.8,6.1,3.6,9.2,5.3
	c0.9,0.5,1.9,1,2.9,1.5c0,4.5,0,8.9,0,13.4c-3.9-1.2-7.8-2.4-11.8-3.7c0-0.9,0-1.8,0-2.7c-4.6-2.6-9.1-5.2-13.6-7.8
	c-3.2,1.8-6.4,3.7-9.7,5.6c0.3,0.1,0.4,0.2,0.5,0.2c5.1,1.6,10.2,3.3,15.3,4.9c5.9,1.9,11.7,3.7,17.6,5.6c0.6,0.2,1.2,0.3,1.8,0.4
	c0,4.5,0,8.9,0,13.4c-1.5,0.9-3.1,1.7-4.6,2.6c-5.4,3.1-10.9,6.3-16.3,9.4c-1.4,0.8-2.7,1.7-4.1,2.5c-0.3,0-0.5,0-0.8,0
	c-0.1-0.1-0.1-0.3-0.2-0.3c-3.9-2.2-7.8-4.5-11.7-6.7c-3.4-1.9-6.7-3.9-10.1-5.8C628.2,1152.7,627.2,1152.3,626.2,1151.8z"/>
<path id="blender" class="st4" d="M550.9,1140.9c0.1-2.4,1.3-4.4,3-5.9c1.8-1.5,4.1-2.3,6.5-2.3c2.5,0,4.8,0.9,6.5,2.3c1.7,1.5,2.9,3.5,3,5.9
	c0.1,2.4-0.8,4.7-2.5,6.3c-1.9,1.8-4.4,2.8-7,2.8c-2.6,0-5.1-1-7-2.8C551.7,1145.5,550.7,1143.3,550.9,1140.9 M535.7,1145.6
	c0,0.9,0.3,2.7,0.8,4.1c1,3,2.6,5.8,4.7,8.1c2.3,2.5,5.1,4.5,8.2,5.9c3.4,1.5,7.1,2.3,10.8,2.2c3.7,0,7.4-0.8,10.8-2.3
	c3.1-1.4,5.9-3.4,8.2-5.9c2.1-2.3,3.7-5.1,4.7-8.1c0.9-2.9,1.2-6,0.7-9c-0.4-2.9-1.4-5.7-3-8.2c-1.4-2.3-3.3-4.3-5.4-6h0l-22.1-16.9
	l-0.1,0c-1.4-1.1-3.9-1.1-5.5,0c-1.6,1.1-1.8,3-0.4,4.2l0,0l9.2,7.5l-28,0h0c-2.3,0-4.5,1.5-5,3.4c-0.5,2,1.1,3.6,3.5,3.6v0l14.2,0
	l-25.4,19.5l-0.1,0.1c-2.4,1.8-3.2,4.9-1.7,6.8c1.5,2,4.8,2,7.2,0l13.8-11.3C535.9,1143.2,535.7,1144.7,535.7,1145.6L535.7,1145.6z
	 M571.2,1150.8c-2.9,2.9-6.8,4.6-11.2,4.6c-4.3,0-8.3-1.6-11.2-4.5c-1.3-1.4-2.4-3-3-4.8c-1.2-3.4-0.9-7.2,0.8-10.3
	c0.9-1.5,2-2.9,3.4-4c2.8-2.3,6.3-3.5,10-3.5c3.7,0,7.2,1.2,10,3.5c1.4,1.1,2.6,2.5,3.4,4c0.9,1.5,1.4,3.3,1.5,5
	c0.2,1.8-0.1,3.6-0.7,5.3C573.6,1147.8,572.6,1149.4,571.2,1150.8"/>


</svg>
